<svg id="Capa_1" data-name="Capa 1" xmlns="http://www.w3.org/2000/svg" xmlns:xlink="http://www.w3.org/1999/xlink" version="1.1" viewBox="0 0 350.5 175.1">
    <defs>
        <clipPath id="clippath">
            <path class="cls-2" d="M0 0h350.5v175.1H0z"/>
        </clipPath>
        <clipPath id="clippath-1">
            <path class="cls-2" d="M1.1 47.5s208.8-74.2 332.6-37.1c17.5 13.3 16.8 24.5 16.8 24.5V144S279.1 58 0 158.7L1.1 47.5Z"/>
        </clipPath>
        <style>
            .cls-2,.cls-5{fill:none;stroke-width:0}.cls-5{fill:#fff}
        </style>
    </defs>
    <g style="clip-path:url(#clippath)">
        <image width="382" height="926" transform="matrix(.2 0 0 .2 -36 -11)" xlink:href="etiqueta-bono-1.png" style="opacity:.5"/>
    </g>
    <path d="M44.1 76.1 0 158.7s132.9-16.8 248.3 6.3c88.1 14 102.1-21 102.1-21l-18.2-46.9-288.1-21Z" style="fill:#a00d26;stroke-width:0"/>
    <path d="M0 47.5s209.9-74.2 333.7-37.1c17.5 13.3 16.8 24.5 16.8 24.5V144S279.1 58 0 158.7V47.5Z" style="fill:#ff1334;stroke-width:0"/>
    <image width="348" height="1172" transform="matrix(.2 0 0 .2 270.2 -78)" xlink:href="etiqueta-bono-2.png" style="clip-path:url(#clippath-1)"/>
    <path class="cls-5" d="M37.7 54.6c11.8-2.1 23.6-4 35.5-5.8 13.1-2 20.2 2.2 21.5 10.8.8 5.7-2.1 11-9 14.3 4.8 1.1 9.2 4.6 10 10.2 1.9 13.4-9.5 20.2-23 22.3-12.1 1.9-24.2 4-36.3 6.2.4-19.3.8-38.6 1.3-57.8Zm20.9 40.9 7.2-1.2c4.6-.7 6.9-2.7 6.3-6.5-.4-2.5-2.3-3.8-5.7-3.2l-7.5 1.2c-.1 3.2-.2 6.5-.3 9.7Zm8.1-23.7c3.8-.6 6-2.5 5.5-5.7-.5-3.1-2.9-3.5-5.7-3.1-2.3.4-4.6.7-6.8 1.1-.1 3-.2 5.9-.3 8.9 2.4-.4 4.9-.8 7.3-1.2ZM166.2 61.3c2 19.3-8.7 35-32.6 37.9-22 2.7-31-8.3-32.8-21.1-2.4-16.5 5.2-35.6 31.6-38.8 22.6-2.7 32.6 9.4 33.9 22.1ZM124.9 76c.6 4.9 2.5 9.4 7.8 8.8 9-1.1 9.9-16 9-23.7-.6-5.3-3-8.7-8-8.1-8.6 1-9.7 15.9-8.8 23ZM170.8 93.6c1.9-19.2 3.9-38.4 5.9-57.6 8.9-.8 17.8-1.6 26.7-2.3 3.9 10.9 7.5 22.2 9.8 30.3h.5c-.2-4.4 1-14.5 2.1-24.1.3-2.4.6-4.8 1-7.2 6.9-.5 13.8-.9 20.7-1.3-2.7 19.1-5.3 38.2-7.9 57.3-8.2.5-16.5 1.1-24.7 1.8-2.7-8.6-7.8-25.5-10.6-34.2h-.4c0 6.6-1.1 17.2-2.3 27.1-.3 2.7-.6 5.5-.9 8.2-6.7.6-13.3 1.2-20 1.9ZM308.2 52.8c.5 19.4-11.5 34.1-35.8 35.1-22.4.9-30.4-10.8-31.3-23.7-1.1-16.7 8.1-35.1 34.8-36.1 22.9-.8 32 12 32.3 24.7Zm-42.6 11.3c.2 4.9 1.8 9.6 7.1 9.4 9.1-.4 11.2-15.2 10.9-22.9-.2-5.3-2.3-8.9-7.4-8.7-8.7.3-11 15.1-10.7 22.2Z"/>
</svg>
